<svg width="1261" height="622" viewBox="0 0 1261 622" fill="none" xmlns="http://www.w3.org/2000/svg">
<circle cx="1152" cy="78" r="6" fill="#FF70A6" fill-opacity="0.2"/>
<circle cx="1236" cy="36" r="6" fill="#FF70A6" fill-opacity="0.2"/>
<circle cx="1236" cy="78" r="6" fill="#FF70A6" fill-opacity="0.2"/>
<circle cx="1152" cy="99" r="6" fill="#FF70A6" fill-opacity="0.2"/>
<circle cx="1236" cy="57" r="6" fill="#FF70A6" fill-opacity="0.2"/>
<circle cx="1236" cy="99" r="6" fill="#FF70A6" fill-opacity="0.2"/>
<circle cx="1173" cy="78" r="6" fill="#FF70A6" fill-opacity="0.2"/>
<circle cx="1257" cy="36" r="6" fill="#FF70A6" fill-opacity="0.2"/>
<circle cx="1257" cy="78" r="6" fill="#FF70A6" fill-opacity="0.2"/>
<circle cx="1173" cy="99" r="6" fill="#FF70A6" fill-opacity="0.2"/>
<circle cx="1257" cy="57" r="6" fill="#FF70A6" fill-opacity="0.2"/>
<circle cx="1257" cy="99" r="6" fill="#FF70A6" fill-opacity="0.2"/>
<circle cx="1194" cy="78" r="6" fill="#FF70A6" fill-opacity="0.2"/>
<circle cx="1194" cy="99" r="6" fill="#FF70A6" fill-opacity="0.2"/>
<circle cx="1215" cy="36" r="6" fill="#FF70A6" fill-opacity="0.2"/>
<circle cx="1215" cy="78" r="6" fill="#FF70A6" fill-opacity="0.2"/>
<circle cx="1215" cy="57" r="6" fill="#FF70A6" fill-opacity="0.2"/>
<circle cx="1215" cy="99" r="6" fill="#FF70A6" fill-opacity="0.2"/>
<circle cx="6" cy="153" r="6" transform="rotate(-90 6 153)" fill="#FF70A6" fill-opacity="0.2"/>
<circle cx="48" cy="153" r="6" transform="rotate(-90 48 153)" fill="#FF70A6" fill-opacity="0.2"/>
<circle cx="6" cy="69" r="6" transform="rotate(-90 6 69)" fill="#FF70A6" fill-opacity="0.2"/>
<circle cx="48" cy="69" r="6" transform="rotate(-90 48 69)" fill="#FF70A6" fill-opacity="0.2"/>
<circle cx="27" cy="153" r="6" transform="rotate(-90 27 153)" fill="#FF70A6" fill-opacity="0.2"/>
<circle cx="69" cy="153" r="6" transform="rotate(-90 69 153)" fill="#FF70A6" fill-opacity="0.2"/>
<circle cx="27" cy="69" r="6" transform="rotate(-90 27 69)" fill="#FF70A6" fill-opacity="0.2"/>
<circle cx="69" cy="69" r="6" transform="rotate(-90 69 69)" fill="#FF70A6" fill-opacity="0.2"/>
<circle cx="6" cy="132" r="6" transform="rotate(-90 6 132)" fill="#FF70A6" fill-opacity="0.2"/>
<circle cx="48" cy="132" r="6" transform="rotate(-90 48 132)" fill="#FF70A6" fill-opacity="0.2"/>
<circle cx="6" cy="48" r="6" transform="rotate(-90 6 48)" fill="#FF70A6" fill-opacity="0.2"/>
<circle cx="48" cy="48" r="6" transform="rotate(-90 48 48)" fill="#FF70A6" fill-opacity="0.2"/>
<circle cx="27" cy="132" r="6" transform="rotate(-90 27 132)" fill="#FF70A6" fill-opacity="0.2"/>
<circle cx="69" cy="132" r="6" transform="rotate(-90 69 132)" fill="#FF70A6" fill-opacity="0.2"/>
<circle cx="27" cy="48" r="6" transform="rotate(-90 27 48)" fill="#FF70A6" fill-opacity="0.2"/>
<circle cx="69" cy="48" r="6" transform="rotate(-90 69 48)" fill="#FF70A6" fill-opacity="0.2"/>
<circle cx="6" cy="111" r="6" transform="rotate(-90 6 111)" fill="#FF70A6" fill-opacity="0.2"/>
<circle cx="48" cy="111" r="6" transform="rotate(-90 48 111)" fill="#FF70A6" fill-opacity="0.2"/>
<circle cx="6" cy="27" r="6" transform="rotate(-90 6 27)" fill="#FF70A6" fill-opacity="0.2"/>
<circle cx="48" cy="27" r="6" transform="rotate(-90 48 27)" fill="#FF70A6" fill-opacity="0.2"/>
<circle cx="27" cy="111" r="6" transform="rotate(-90 27 111)" fill="#FF70A6" fill-opacity="0.2"/>
<circle cx="69" cy="111" r="6" transform="rotate(-90 69 111)" fill="#FF70A6" fill-opacity="0.2"/>
<circle cx="27" cy="27" r="6" transform="rotate(-90 27 27)" fill="#FF70A6" fill-opacity="0.2"/>
<circle cx="69" cy="27" r="6" transform="rotate(-90 69 27)" fill="#FF70A6" fill-opacity="0.2"/>
<circle cx="6" cy="90" r="6" transform="rotate(-90 6 90)" fill="#FF70A6" fill-opacity="0.2"/>
<circle cx="48" cy="90" r="6" transform="rotate(-90 48 90)" fill="#FF70A6" fill-opacity="0.2"/>
<circle cx="6" cy="6" r="6" transform="rotate(-90 6 6)" fill="#FF70A6" fill-opacity="0.2"/>
<circle cx="48" cy="6" r="6" transform="rotate(-90 48 6)" fill="#FF70A6" fill-opacity="0.2"/>
<circle cx="27" cy="90" r="6" transform="rotate(-90 27 90)" fill="#FF70A6" fill-opacity="0.2"/>
<circle cx="69" cy="90" r="6" transform="rotate(-90 69 90)" fill="#FF70A6" fill-opacity="0.2"/>
<circle cx="27" cy="6" r="6" transform="rotate(-90 27 6)" fill="#FF70A6" fill-opacity="0.2"/>
<circle cx="69" cy="6" r="6" transform="rotate(-90 69 6)" fill="#FF70A6" fill-opacity="0.2"/>
<circle cx="276" cy="488" r="6" transform="rotate(180 276 488)" fill="#FF70A6" fill-opacity="0.2"/>
<circle cx="276" cy="446" r="6" transform="rotate(180 276 446)" fill="#FF70A6" fill-opacity="0.2"/>
<circle cx="192" cy="488" r="6" transform="rotate(180 192 488)" fill="#FF70A6" fill-opacity="0.2"/>
<circle cx="192" cy="446" r="6" transform="rotate(180 192 446)" fill="#FF70A6" fill-opacity="0.2"/>
<circle cx="276" cy="467" r="6" transform="rotate(180 276 467)" fill="#FF70A6" fill-opacity="0.2"/>
<circle cx="276" cy="425" r="6" transform="rotate(180 276 425)" fill="#FF70A6" fill-opacity="0.2"/>
<circle cx="192" cy="467" r="6" transform="rotate(180 192 467)" fill="#FF70A6" fill-opacity="0.2"/>
<circle cx="192" cy="425" r="6" transform="rotate(180 192 425)" fill="#FF70A6" fill-opacity="0.2"/>
<circle cx="255" cy="488" r="6" transform="rotate(180 255 488)" fill="#FF70A6" fill-opacity="0.2"/>
<circle cx="255" cy="446" r="6" transform="rotate(180 255 446)" fill="#FF70A6" fill-opacity="0.2"/>
<circle cx="171" cy="488" r="6" transform="rotate(180 171 488)" fill="#FF70A6" fill-opacity="0.2"/>
<circle cx="171" cy="446" r="6" transform="rotate(180 171 446)" fill="#FF70A6" fill-opacity="0.2"/>
<circle cx="255" cy="467" r="6" transform="rotate(180 255 467)" fill="#FF70A6" fill-opacity="0.2"/>
<circle cx="255" cy="425" r="6" transform="rotate(180 255 425)" fill="#FF70A6" fill-opacity="0.2"/>
<circle cx="171" cy="467" r="6" transform="rotate(180 171 467)" fill="#FF70A6" fill-opacity="0.2"/>
<circle cx="171" cy="425" r="6" transform="rotate(180 171 425)" fill="#FF70A6" fill-opacity="0.2"/>
<circle cx="234" cy="488" r="6" transform="rotate(180 234 488)" fill="#FF70A6" fill-opacity="0.2"/>
<circle cx="234" cy="446" r="6" transform="rotate(180 234 446)" fill="#FF70A6" fill-opacity="0.2"/>
<circle cx="150" cy="488" r="6" transform="rotate(180 150 488)" fill="#FF70A6" fill-opacity="0.2"/>
<circle cx="150" cy="446" r="6" transform="rotate(180 150 446)" fill="#FF70A6" fill-opacity="0.2"/>
<circle cx="234" cy="467" r="6" transform="rotate(180 234 467)" fill="#FF70A6" fill-opacity="0.2"/>
<circle cx="234" cy="425" r="6" transform="rotate(180 234 425)" fill="#FF70A6" fill-opacity="0.2"/>
<circle cx="150" cy="467" r="6" transform="rotate(180 150 467)" fill="#FF70A6" fill-opacity="0.2"/>
<circle cx="150" cy="425" r="6" transform="rotate(180 150 425)" fill="#FF70A6" fill-opacity="0.2"/>
<circle cx="213" cy="488" r="6" transform="rotate(180 213 488)" fill="#FF70A6" fill-opacity="0.2"/>
<circle cx="213" cy="446" r="6" transform="rotate(180 213 446)" fill="#FF70A6" fill-opacity="0.2"/>
<circle cx="129" cy="488" r="6" transform="rotate(180 129 488)" fill="#FF70A6" fill-opacity="0.2"/>
<circle cx="129" cy="446" r="6" transform="rotate(180 129 446)" fill="#FF70A6" fill-opacity="0.2"/>
<circle cx="213" cy="467" r="6" transform="rotate(180 213 467)" fill="#FF70A6" fill-opacity="0.2"/>
<circle cx="213" cy="425" r="6" transform="rotate(180 213 425)" fill="#FF70A6" fill-opacity="0.2"/>
<circle cx="129" cy="467" r="6" transform="rotate(180 129 467)" fill="#FF70A6" fill-opacity="0.2"/>
<circle cx="129" cy="425" r="6" transform="rotate(180 129 425)" fill="#FF70A6" fill-opacity="0.2"/>
<circle cx="1076.34" cy="614.248" r="6" transform="rotate(-165 1076.34 614.248)" fill="#FF70A6" fill-opacity="0.2"/>
<circle cx="1087.21" cy="573.679" r="6" transform="rotate(-165 1087.21 573.679)" fill="#FF70A6" fill-opacity="0.2"/>
<circle cx="995.202" cy="592.507" r="6" transform="rotate(-165 995.202 592.507)" fill="#FF70A6" fill-opacity="0.2"/>
<circle cx="1006.07" cy="551.939" r="6" transform="rotate(-165 1006.07 551.939)" fill="#FF70A6" fill-opacity="0.2"/>
<circle cx="1081.77" cy="593.964" r="6" transform="rotate(-165 1081.77 593.964)" fill="#FF70A6" fill-opacity="0.2"/>
<circle cx="1092.65" cy="553.395" r="6" transform="rotate(-165 1092.65 553.395)" fill="#FF70A6" fill-opacity="0.2"/>
<circle cx="1000.64" cy="572.223" r="6" transform="rotate(-165 1000.64 572.223)" fill="#FF70A6" fill-opacity="0.2"/>
<circle cx="1011.51" cy="531.654" r="6" transform="rotate(-165 1011.51 531.654)" fill="#FF70A6" fill-opacity="0.2"/>
<circle cx="1056.06" cy="608.813" r="6" transform="rotate(-165 1056.06 608.813)" fill="#FF70A6" fill-opacity="0.2"/>
<circle cx="1066.93" cy="568.244" r="6" transform="rotate(-165 1066.93 568.244)" fill="#FF70A6" fill-opacity="0.2"/>
<circle cx="974.917" cy="587.072" r="6" transform="rotate(-165 974.917 587.072)" fill="#FF70A6" fill-opacity="0.2"/>
<circle cx="985.788" cy="546.503" r="6" transform="rotate(-165 985.788 546.503)" fill="#FF70A6" fill-opacity="0.2"/>
<circle cx="1061.49" cy="588.529" r="6" transform="rotate(-165 1061.49 588.529)" fill="#FF70A6" fill-opacity="0.2"/>
<circle cx="1072.36" cy="547.96" r="6" transform="rotate(-165 1072.36 547.96)" fill="#FF70A6" fill-opacity="0.2"/>
<circle cx="980.353" cy="566.788" r="6" transform="rotate(-165 980.353 566.788)" fill="#FF70A6" fill-opacity="0.2"/>
<circle cx="991.223" cy="526.219" r="6" transform="rotate(-165 991.223 526.219)" fill="#FF70A6" fill-opacity="0.2"/>
<circle cx="1035.77" cy="603.378" r="6" transform="rotate(-165 1035.77 603.378)" fill="#FF70A6" fill-opacity="0.2"/>
<circle cx="1046.64" cy="562.809" r="6" transform="rotate(-165 1046.64 562.809)" fill="#FF70A6" fill-opacity="0.2"/>
<circle cx="954.633" cy="581.637" r="6" transform="rotate(-165 954.633 581.637)" fill="#FF70A6" fill-opacity="0.2"/>
<circle cx="965.503" cy="541.068" r="6" transform="rotate(-165 965.503 541.068)" fill="#FF70A6" fill-opacity="0.2"/>
<circle cx="1041.21" cy="583.093" r="6" transform="rotate(-165 1041.21 583.093)" fill="#FF70A6" fill-opacity="0.2"/>
<circle cx="1052.08" cy="542.524" r="6" transform="rotate(-165 1052.08 542.524)" fill="#FF70A6" fill-opacity="0.2"/>
<circle cx="960.068" cy="561.353" r="6" transform="rotate(-165 960.068 561.353)" fill="#FF70A6" fill-opacity="0.2"/>
<circle cx="970.939" cy="520.784" r="6" transform="rotate(-165 970.939 520.784)" fill="#FF70A6" fill-opacity="0.2"/>
<circle cx="1015.49" cy="597.943" r="6" transform="rotate(-165 1015.49 597.943)" fill="#FF70A6" fill-opacity="0.2"/>
<circle cx="1026.36" cy="557.374" r="6" transform="rotate(-165 1026.36 557.374)" fill="#FF70A6" fill-opacity="0.2"/>
<circle cx="934.349" cy="576.202" r="6" transform="rotate(-165 934.349 576.202)" fill="#FF70A6" fill-opacity="0.2"/>
<circle cx="945.219" cy="535.633" r="6" transform="rotate(-165 945.219 535.633)" fill="#FF70A6" fill-opacity="0.2"/>
<circle cx="1020.92" cy="577.658" r="6" transform="rotate(-165 1020.92 577.658)" fill="#FF70A6" fill-opacity="0.2"/>
<circle cx="1031.79" cy="537.089" r="6" transform="rotate(-165 1031.79 537.089)" fill="#FF70A6" fill-opacity="0.2"/>
<circle cx="939.784" cy="555.917" r="6" transform="rotate(-165 939.784 555.917)" fill="#FF70A6" fill-opacity="0.2"/>
<circle cx="950.654" cy="515.348" r="6" transform="rotate(-165 950.654 515.348)" fill="#FF70A6" fill-opacity="0.2"/>
</svg>
