<svg width="1241" height="589" viewBox="0 0 1241 589" fill="none" xmlns="http://www.w3.org/2000/svg">
<ellipse cx="1095.5" cy="73.9097" rx="5.70575" ry="5.68536" fill="#FF70A6" fill-opacity="0.2"/>
<ellipse cx="1175.38" cy="34.1121" rx="5.70575" ry="5.68536" fill="#FF70A6" fill-opacity="0.2"/>
<ellipse cx="1175.38" cy="73.9097" rx="5.70575" ry="5.68536" fill="#FF70A6" fill-opacity="0.2"/>
<ellipse cx="1095.5" cy="93.8084" rx="5.70575" ry="5.68536" fill="#FF70A6" fill-opacity="0.2"/>
<ellipse cx="1175.38" cy="54.0109" rx="5.70575" ry="5.68536" fill="#FF70A6" fill-opacity="0.2"/>
<ellipse cx="1175.38" cy="93.8084" rx="5.70575" ry="5.68536" fill="#FF70A6" fill-opacity="0.2"/>
<ellipse cx="1115.47" cy="73.9097" rx="5.70575" ry="5.68536" fill="#FF70A6" fill-opacity="0.2"/>
<ellipse cx="1195.35" cy="34.1121" rx="5.70575" ry="5.68536" fill="#FF70A6" fill-opacity="0.2"/>
<ellipse cx="1195.35" cy="73.9097" rx="5.70575" ry="5.68536" fill="#FF70A6" fill-opacity="0.2"/>
<ellipse cx="1115.47" cy="93.8084" rx="5.70575" ry="5.68536" fill="#FF70A6" fill-opacity="0.2"/>
<ellipse cx="1195.35" cy="54.0109" rx="5.70575" ry="5.68536" fill="#FF70A6" fill-opacity="0.2"/>
<ellipse cx="1195.35" cy="93.8084" rx="5.70575" ry="5.68536" fill="#FF70A6" fill-opacity="0.2"/>
<ellipse cx="1135.44" cy="73.9097" rx="5.70575" ry="5.68536" fill="#FF70A6" fill-opacity="0.2"/>
<ellipse cx="1215.32" cy="34.1121" rx="5.70575" ry="5.68536" fill="#FF70A6" fill-opacity="0.2"/>
<ellipse cx="1215.32" cy="73.9097" rx="5.70575" ry="5.68536" fill="#FF70A6" fill-opacity="0.2"/>
<ellipse cx="1135.44" cy="93.8084" rx="5.70575" ry="5.68536" fill="#FF70A6" fill-opacity="0.2"/>
<ellipse cx="1215.32" cy="54.0109" rx="5.70575" ry="5.68536" fill="#FF70A6" fill-opacity="0.2"/>
<ellipse cx="1215.32" cy="93.8084" rx="5.70575" ry="5.68536" fill="#FF70A6" fill-opacity="0.2"/>
<ellipse cx="1155.41" cy="34.1121" rx="5.70575" ry="5.68536" fill="#FF70A6" fill-opacity="0.2"/>
<ellipse cx="1155.41" cy="73.9097" rx="5.70575" ry="5.68536" fill="#FF70A6" fill-opacity="0.2"/>
<ellipse cx="1235.29" cy="34.1121" rx="5.70575" ry="5.68536" fill="#FF70A6" fill-opacity="0.2"/>
<ellipse cx="1235.29" cy="73.9097" rx="5.70575" ry="5.68536" fill="#FF70A6" fill-opacity="0.2"/>
<ellipse cx="1155.41" cy="54.0109" rx="5.70575" ry="5.68536" fill="#FF70A6" fill-opacity="0.2"/>
<ellipse cx="1155.41" cy="93.8084" rx="5.70575" ry="5.68536" fill="#FF70A6" fill-opacity="0.2"/>
<ellipse cx="1235.29" cy="54.0109" rx="5.70575" ry="5.68536" fill="#FF70A6" fill-opacity="0.2"/>
<ellipse cx="1235.29" cy="93.8084" rx="5.70575" ry="5.68536" fill="#FF70A6" fill-opacity="0.2"/>
<ellipse cx="5.70575" cy="144.977" rx="5.68536" ry="5.70575" transform="rotate(-90 5.70575 144.977)" fill="#FF70A6" fill-opacity="0.2"/>
<ellipse cx="45.646" cy="144.977" rx="5.68536" ry="5.70575" transform="rotate(-90 45.646 144.977)" fill="#FF70A6" fill-opacity="0.2"/>
<ellipse cx="5.70575" cy="65.3816" rx="5.68536" ry="5.70575" transform="rotate(-90 5.70575 65.3816)" fill="#FF70A6" fill-opacity="0.2"/>
<ellipse cx="45.646" cy="65.3816" rx="5.68536" ry="5.70575" transform="rotate(-90 45.646 65.3816)" fill="#FF70A6" fill-opacity="0.2"/>
<ellipse cx="25.6758" cy="144.977" rx="5.68536" ry="5.70575" transform="rotate(-90 25.6758 144.977)" fill="#FF70A6" fill-opacity="0.2"/>
<ellipse cx="65.6161" cy="144.977" rx="5.68536" ry="5.70575" transform="rotate(-90 65.6161 144.977)" fill="#FF70A6" fill-opacity="0.2"/>
<ellipse cx="25.6758" cy="65.3816" rx="5.68536" ry="5.70575" transform="rotate(-90 25.6758 65.3816)" fill="#FF70A6" fill-opacity="0.2"/>
<ellipse cx="65.6161" cy="65.3816" rx="5.68536" ry="5.70575" transform="rotate(-90 65.6161 65.3816)" fill="#FF70A6" fill-opacity="0.2"/>
<ellipse cx="5.70575" cy="125.078" rx="5.68536" ry="5.70575" transform="rotate(-90 5.70575 125.078)" fill="#FF70A6" fill-opacity="0.2"/>
<ellipse cx="45.646" cy="125.078" rx="5.68536" ry="5.70575" transform="rotate(-90 45.646 125.078)" fill="#FF70A6" fill-opacity="0.2"/>
<ellipse cx="5.70575" cy="45.4829" rx="5.68536" ry="5.70575" transform="rotate(-90 5.70575 45.4829)" fill="#FF70A6" fill-opacity="0.2"/>
<ellipse cx="45.646" cy="45.4829" rx="5.68536" ry="5.70575" transform="rotate(-90 45.646 45.4829)" fill="#FF70A6" fill-opacity="0.2"/>
<ellipse cx="25.6758" cy="125.078" rx="5.68536" ry="5.70575" transform="rotate(-90 25.6758 125.078)" fill="#FF70A6" fill-opacity="0.2"/>
<ellipse cx="65.6161" cy="125.078" rx="5.68536" ry="5.70575" transform="rotate(-90 65.6161 125.078)" fill="#FF70A6" fill-opacity="0.2"/>
<ellipse cx="25.6758" cy="45.4829" rx="5.68536" ry="5.70575" transform="rotate(-90 25.6758 45.4829)" fill="#FF70A6" fill-opacity="0.2"/>
<ellipse cx="65.6161" cy="45.4829" rx="5.68536" ry="5.70575" transform="rotate(-90 65.6161 45.4829)" fill="#FF70A6" fill-opacity="0.2"/>
<ellipse cx="5.70575" cy="105.179" rx="5.68536" ry="5.70575" transform="rotate(-90 5.70575 105.179)" fill="#FF70A6" fill-opacity="0.2"/>
<ellipse cx="45.646" cy="105.179" rx="5.68536" ry="5.70575" transform="rotate(-90 45.646 105.179)" fill="#FF70A6" fill-opacity="0.2"/>
<ellipse cx="5.70575" cy="25.5841" rx="5.68536" ry="5.70575" transform="rotate(-90 5.70575 25.5841)" fill="#FF70A6" fill-opacity="0.2"/>
<ellipse cx="45.646" cy="25.5841" rx="5.68536" ry="5.70575" transform="rotate(-90 45.646 25.5841)" fill="#FF70A6" fill-opacity="0.2"/>
<ellipse cx="25.6758" cy="105.179" rx="5.68536" ry="5.70575" transform="rotate(-90 25.6758 105.179)" fill="#FF70A6" fill-opacity="0.2"/>
<ellipse cx="65.6161" cy="105.179" rx="5.68536" ry="5.70575" transform="rotate(-90 65.6161 105.179)" fill="#FF70A6" fill-opacity="0.2"/>
<ellipse cx="25.6758" cy="25.5841" rx="5.68536" ry="5.70575" transform="rotate(-90 25.6758 25.5841)" fill="#FF70A6" fill-opacity="0.2"/>
<ellipse cx="65.6161" cy="25.5841" rx="5.68536" ry="5.70575" transform="rotate(-90 65.6161 25.5841)" fill="#FF70A6" fill-opacity="0.2"/>
<ellipse cx="5.70575" cy="85.2804" rx="5.68536" ry="5.70575" transform="rotate(-90 5.70575 85.2804)" fill="#FF70A6" fill-opacity="0.2"/>
<ellipse cx="45.646" cy="85.2804" rx="5.68536" ry="5.70575" transform="rotate(-90 45.646 85.2804)" fill="#FF70A6" fill-opacity="0.2"/>
<ellipse cx="5.70575" cy="5.68534" rx="5.68536" ry="5.70575" transform="rotate(-90 5.70575 5.68534)" fill="#FF70A6" fill-opacity="0.2"/>
<ellipse cx="45.646" cy="5.68534" rx="5.68536" ry="5.70575" transform="rotate(-90 45.646 5.68534)" fill="#FF70A6" fill-opacity="0.2"/>
<ellipse cx="25.6758" cy="85.2804" rx="5.68536" ry="5.70575" transform="rotate(-90 25.6758 85.2804)" fill="#FF70A6" fill-opacity="0.2"/>
<ellipse cx="65.6161" cy="85.2804" rx="5.68536" ry="5.70575" transform="rotate(-90 65.6161 85.2804)" fill="#FF70A6" fill-opacity="0.2"/>
<ellipse cx="25.6758" cy="5.68534" rx="5.68536" ry="5.70575" transform="rotate(-90 25.6758 5.68534)" fill="#FF70A6" fill-opacity="0.2"/>
<ellipse cx="65.6161" cy="5.68534" rx="5.68536" ry="5.70575" transform="rotate(-90 65.6161 5.68534)" fill="#FF70A6" fill-opacity="0.2"/>
<ellipse cx="262.464" cy="462.409" rx="5.70575" ry="5.68536" transform="rotate(180 262.464 462.409)" fill="#FF70A6" fill-opacity="0.2"/>
<ellipse cx="262.464" cy="422.612" rx="5.70575" ry="5.68536" transform="rotate(180 262.464 422.612)" fill="#FF70A6" fill-opacity="0.2"/>
<ellipse cx="182.584" cy="462.409" rx="5.70575" ry="5.68536" transform="rotate(180 182.584 462.409)" fill="#FF70A6" fill-opacity="0.2"/>
<ellipse cx="182.584" cy="422.612" rx="5.70575" ry="5.68536" transform="rotate(180 182.584 422.612)" fill="#FF70A6" fill-opacity="0.2"/>
<ellipse cx="262.464" cy="442.51" rx="5.70575" ry="5.68536" transform="rotate(180 262.464 442.51)" fill="#FF70A6" fill-opacity="0.2"/>
<ellipse cx="262.464" cy="402.713" rx="5.70575" ry="5.68536" transform="rotate(180 262.464 402.713)" fill="#FF70A6" fill-opacity="0.2"/>
<ellipse cx="182.584" cy="442.51" rx="5.70575" ry="5.68536" transform="rotate(180 182.584 442.51)" fill="#FF70A6" fill-opacity="0.2"/>
<ellipse cx="182.584" cy="402.713" rx="5.70575" ry="5.68536" transform="rotate(180 182.584 402.713)" fill="#FF70A6" fill-opacity="0.2"/>
<ellipse cx="242.494" cy="462.409" rx="5.70575" ry="5.68536" transform="rotate(180 242.494 462.409)" fill="#FF70A6" fill-opacity="0.2"/>
<ellipse cx="242.494" cy="422.612" rx="5.70575" ry="5.68536" transform="rotate(180 242.494 422.612)" fill="#FF70A6" fill-opacity="0.2"/>
<ellipse cx="162.614" cy="462.409" rx="5.70575" ry="5.68536" transform="rotate(180 162.614 462.409)" fill="#FF70A6" fill-opacity="0.2"/>
<ellipse cx="162.614" cy="422.612" rx="5.70575" ry="5.68536" transform="rotate(180 162.614 422.612)" fill="#FF70A6" fill-opacity="0.2"/>
<ellipse cx="242.494" cy="442.51" rx="5.70575" ry="5.68536" transform="rotate(180 242.494 442.51)" fill="#FF70A6" fill-opacity="0.2"/>
<ellipse cx="242.494" cy="402.713" rx="5.70575" ry="5.68536" transform="rotate(180 242.494 402.713)" fill="#FF70A6" fill-opacity="0.2"/>
<ellipse cx="162.614" cy="442.51" rx="5.70575" ry="5.68536" transform="rotate(180 162.614 442.51)" fill="#FF70A6" fill-opacity="0.2"/>
<ellipse cx="162.614" cy="402.713" rx="5.70575" ry="5.68536" transform="rotate(180 162.614 402.713)" fill="#FF70A6" fill-opacity="0.2"/>
<ellipse cx="222.524" cy="462.409" rx="5.70575" ry="5.68536" transform="rotate(180 222.524 462.409)" fill="#FF70A6" fill-opacity="0.2"/>
<ellipse cx="222.524" cy="422.612" rx="5.70575" ry="5.68536" transform="rotate(180 222.524 422.612)" fill="#FF70A6" fill-opacity="0.2"/>
<ellipse cx="142.644" cy="462.409" rx="5.70575" ry="5.68536" transform="rotate(180 142.644 462.409)" fill="#FF70A6" fill-opacity="0.2"/>
<ellipse cx="142.644" cy="422.612" rx="5.70575" ry="5.68536" transform="rotate(180 142.644 422.612)" fill="#FF70A6" fill-opacity="0.2"/>
<ellipse cx="222.524" cy="442.51" rx="5.70575" ry="5.68536" transform="rotate(180 222.524 442.51)" fill="#FF70A6" fill-opacity="0.2"/>
<ellipse cx="222.524" cy="402.713" rx="5.70575" ry="5.68536" transform="rotate(180 222.524 402.713)" fill="#FF70A6" fill-opacity="0.2"/>
<ellipse cx="142.644" cy="442.51" rx="5.70575" ry="5.68536" transform="rotate(180 142.644 442.51)" fill="#FF70A6" fill-opacity="0.2"/>
<ellipse cx="142.644" cy="402.713" rx="5.70575" ry="5.68536" transform="rotate(180 142.644 402.713)" fill="#FF70A6" fill-opacity="0.2"/>
<ellipse cx="202.554" cy="462.409" rx="5.70575" ry="5.68536" transform="rotate(180 202.554 462.409)" fill="#FF70A6" fill-opacity="0.2"/>
<ellipse cx="202.554" cy="422.612" rx="5.70575" ry="5.68536" transform="rotate(180 202.554 422.612)" fill="#FF70A6" fill-opacity="0.2"/>
<ellipse cx="122.674" cy="462.409" rx="5.70575" ry="5.68536" transform="rotate(180 122.674 462.409)" fill="#FF70A6" fill-opacity="0.2"/>
<ellipse cx="122.674" cy="422.612" rx="5.70575" ry="5.68536" transform="rotate(180 122.674 422.612)" fill="#FF70A6" fill-opacity="0.2"/>
<ellipse cx="202.554" cy="442.51" rx="5.70575" ry="5.68536" transform="rotate(180 202.554 442.51)" fill="#FF70A6" fill-opacity="0.2"/>
<ellipse cx="202.554" cy="402.713" rx="5.70575" ry="5.68536" transform="rotate(180 202.554 402.713)" fill="#FF70A6" fill-opacity="0.2"/>
<ellipse cx="122.674" cy="442.51" rx="5.70575" ry="5.68536" transform="rotate(180 122.674 442.51)" fill="#FF70A6" fill-opacity="0.2"/>
<ellipse cx="122.674" cy="402.713" rx="5.70575" ry="5.68536" transform="rotate(180 122.674 402.713)" fill="#FF70A6" fill-opacity="0.2"/>
<ellipse rx="5.70438" ry="5.68673" transform="matrix(-0.966157 -0.257956 0.259685 -0.965693 1023.55 582.037)" fill="#FF70A6" fill-opacity="0.2"/>
<ellipse rx="5.70438" ry="5.68673" transform="matrix(-0.966157 -0.257956 0.259685 -0.965693 1033.89 543.595)" fill="#FF70A6" fill-opacity="0.2"/>
<ellipse rx="5.70438" ry="5.68673" transform="matrix(-0.966157 -0.257956 0.259685 -0.965693 946.395 561.436)" fill="#FF70A6" fill-opacity="0.2"/>
<ellipse rx="5.70438" ry="5.68673" transform="matrix(-0.966157 -0.257956 0.259685 -0.965693 956.732 522.995)" fill="#FF70A6" fill-opacity="0.2"/>
<ellipse rx="5.70438" ry="5.68673" transform="matrix(-0.966157 -0.257956 0.259685 -0.965693 1028.72 562.816)" fill="#FF70A6" fill-opacity="0.2"/>
<ellipse rx="5.70438" ry="5.68673" transform="matrix(-0.966157 -0.257956 0.259685 -0.965693 1039.06 524.375)" fill="#FF70A6" fill-opacity="0.2"/>
<ellipse rx="5.70438" ry="5.68673" transform="matrix(-0.966157 -0.257956 0.259685 -0.965693 951.564 542.215)" fill="#FF70A6" fill-opacity="0.2"/>
<ellipse rx="5.70438" ry="5.68673" transform="matrix(-0.966157 -0.257956 0.259685 -0.965693 961.901 503.774)" fill="#FF70A6" fill-opacity="0.2"/>
<ellipse rx="5.70438" ry="5.68673" transform="matrix(-0.966157 -0.257956 0.259685 -0.965693 1004.26 576.887)" fill="#FF70A6" fill-opacity="0.2"/>
<ellipse rx="5.70438" ry="5.68673" transform="matrix(-0.966157 -0.257956 0.259685 -0.965693 1014.6 538.445)" fill="#FF70A6" fill-opacity="0.2"/>
<ellipse rx="5.70438" ry="5.68673" transform="matrix(-0.966157 -0.257956 0.259685 -0.965693 927.105 556.286)" fill="#FF70A6" fill-opacity="0.2"/>
<ellipse rx="5.70438" ry="5.68673" transform="matrix(-0.966157 -0.257956 0.259685 -0.965693 937.443 517.845)" fill="#FF70A6" fill-opacity="0.2"/>
<ellipse rx="5.70438" ry="5.68673" transform="matrix(-0.966157 -0.257956 0.259685 -0.965693 1009.43 557.666)" fill="#FF70A6" fill-opacity="0.2"/>
<ellipse rx="5.70438" ry="5.68673" transform="matrix(-0.966157 -0.257956 0.259685 -0.965693 1019.77 519.225)" fill="#FF70A6" fill-opacity="0.2"/>
<ellipse rx="5.70438" ry="5.68673" transform="matrix(-0.966157 -0.257956 0.259685 -0.965693 932.274 537.065)" fill="#FF70A6" fill-opacity="0.2"/>
<ellipse rx="5.70438" ry="5.68673" transform="matrix(-0.966157 -0.257956 0.259685 -0.965693 942.611 498.624)" fill="#FF70A6" fill-opacity="0.2"/>
<ellipse rx="5.70438" ry="5.68673" transform="matrix(-0.966157 -0.257956 0.259685 -0.965693 984.974 571.737)" fill="#FF70A6" fill-opacity="0.2"/>
<ellipse rx="5.70438" ry="5.68673" transform="matrix(-0.966157 -0.257956 0.259685 -0.965693 995.312 533.295)" fill="#FF70A6" fill-opacity="0.2"/>
<ellipse rx="5.70438" ry="5.68673" transform="matrix(-0.966157 -0.257956 0.259685 -0.965693 907.816 551.136)" fill="#FF70A6" fill-opacity="0.2"/>
<ellipse rx="5.70438" ry="5.68673" transform="matrix(-0.966157 -0.257956 0.259685 -0.965693 918.153 512.694)" fill="#FF70A6" fill-opacity="0.2"/>
<ellipse rx="5.70438" ry="5.68673" transform="matrix(-0.966157 -0.257956 0.259685 -0.965693 990.143 552.516)" fill="#FF70A6" fill-opacity="0.2"/>
<ellipse rx="5.70438" ry="5.68673" transform="matrix(-0.966157 -0.257956 0.259685 -0.965693 1000.48 514.074)" fill="#FF70A6" fill-opacity="0.2"/>
<ellipse rx="5.70438" ry="5.68673" transform="matrix(-0.966157 -0.257956 0.259685 -0.965693 912.984 531.915)" fill="#FF70A6" fill-opacity="0.2"/>
<ellipse rx="5.70438" ry="5.68673" transform="matrix(-0.966157 -0.257956 0.259685 -0.965693 923.322 493.474)" fill="#FF70A6" fill-opacity="0.2"/>
<ellipse rx="5.70438" ry="5.68673" transform="matrix(-0.966157 -0.257956 0.259685 -0.965693 965.685 566.586)" fill="#FF70A6" fill-opacity="0.2"/>
<ellipse rx="5.70438" ry="5.68673" transform="matrix(-0.966157 -0.257956 0.259685 -0.965693 976.022 528.145)" fill="#FF70A6" fill-opacity="0.2"/>
<ellipse rx="5.70438" ry="5.68673" transform="matrix(-0.966157 -0.257956 0.259685 -0.965693 888.526 545.986)" fill="#FF70A6" fill-opacity="0.2"/>
<ellipse rx="5.70438" ry="5.68673" transform="matrix(-0.966157 -0.257956 0.259685 -0.965693 898.863 507.544)" fill="#FF70A6" fill-opacity="0.2"/>
<ellipse rx="5.70438" ry="5.68673" transform="matrix(-0.966157 -0.257956 0.259685 -0.965693 970.853 547.366)" fill="#FF70A6" fill-opacity="0.2"/>
<ellipse rx="5.70438" ry="5.68673" transform="matrix(-0.966157 -0.257956 0.259685 -0.965693 981.191 508.924)" fill="#FF70A6" fill-opacity="0.2"/>
<ellipse rx="5.70438" ry="5.68673" transform="matrix(-0.966157 -0.257956 0.259685 -0.965693 893.695 526.765)" fill="#FF70A6" fill-opacity="0.2"/>
<ellipse rx="5.70438" ry="5.68673" transform="matrix(-0.966157 -0.257956 0.259685 -0.965693 904.032 488.323)" fill="#FF70A6" fill-opacity="0.2"/>
</svg>
